<svg xmlns="http://www.w3.org/2000/svg" xmlns:xlink="http://www.w3.org/1999/xlink" width="1080" zoomAndPan="magnify" viewBox="0 0 810 809.999993" height="1080" preserveAspectRatio="xMidYMid meet" version="1.0"><defs><clipPath id="9a2f9ed668"><path d="M 50.625 0 L 759.375 0 L 759.375 810 L 50.625 810 Z M 50.625 0 " clip-rule="nonzero"/></clipPath><clipPath id="62c607adca"><path d="M 480.699219 61.511719 L 759.375 61.511719 L 759.375 340.1875 L 480.699219 340.1875 Z M 480.699219 61.511719 " clip-rule="nonzero"/></clipPath><clipPath id="01e686dc80"><path d="M 620.035156 61.511719 C 543.082031 61.511719 480.699219 123.898438 480.699219 200.851562 C 480.699219 277.804688 543.082031 340.1875 620.035156 340.1875 C 696.992188 340.1875 759.375 277.804688 759.375 200.851562 C 759.375 123.898438 696.992188 61.511719 620.035156 61.511719 Z M 620.035156 61.511719 " clip-rule="nonzero"/></clipPath></defs><g clip-path="url(#9a2f9ed668)"><path fill="#005bad" d="M 405 0 C 376.996094 0 354.375 22.625 354.375 50.625 L 354.375 81 C 238.886719 104.414062 151.875 206.613281 151.875 329.0625 L 151.875 358.804688 C 151.875 433.160156 124.503906 504.984375 75.144531 560.671875 L 63.441406 573.800781 C 50.152344 588.671875 46.988281 610.03125 55.054688 628.222656 C 63.121094 646.417969 81.316406 658.125 101.25 658.125 L 708.75 658.125 C 728.683594 658.125 746.71875 646.417969 754.945312 628.226562 C 763.171875 610.03125 759.847656 588.675781 746.5625 573.804688 L 734.855469 560.671875 C 685.492188 504.984375 658.125 433.316406 658.125 358.804688 L 658.125 329.0625 C 658.125 206.613281 571.113281 104.414062 455.625 81 L 455.625 50.625 C 455.625 22.625 433 0 405 0 Z M 476.664062 780.414062 C 495.648438 761.429688 506.25 735.644531 506.25 708.75 L 303.75 708.75 C 303.75 735.644531 314.347656 761.429688 333.332031 780.414062 C 352.316406 799.398438 378.105469 810 405 810 C 431.894531 810 457.679688 799.398438 476.664062 780.414062 Z M 476.664062 780.414062 " fill-opacity="1" fill-rule="nonzero"/></g><g clip-path="url(#62c607adca)"><g clip-path="url(#01e686dc80)"><path fill="#f85760" d="M 480.699219 61.511719 L 759.375 61.511719 L 759.375 340.1875 L 480.699219 340.1875 Z M 480.699219 61.511719 " fill-opacity="1" fill-rule="nonzero"/></g></g></svg>