<svg xmlns="http://www.w3.org/2000/svg" xmlns:xlink="http://www.w3.org/1999/xlink" width="1080" zoomAndPan="magnify" viewBox="0 0 810 187.499995" height="250" preserveAspectRatio="xMidYMid meet" version="1.0"><defs><filter x="0%" y="0%" width="100%" height="100%" id="ebf9158734"><feColorMatrix values="0 0 0 0 1 0 0 0 0 1 0 0 0 0 1 0 0 0 1 0" color-interpolation-filters="sRGB"/></filter><mask id="fc532fce15"><g filter="url(#ebf9158734)"><rect x="-81" width="972" fill="#000000" y="-18.749999" height="224.999994" fill-opacity="0.6"/></g></mask><clipPath id="012c136ab5"><path d="M 0.4375 0.777344 L 157.882812 0.777344 L 157.882812 158.222656 L 0.4375 158.222656 Z M 0.4375 0.777344 " clip-rule="nonzero"/></clipPath><clipPath id="1013265367"><path d="M 79.160156 0.777344 C 35.683594 0.777344 0.4375 36.023438 0.4375 79.5 C 0.4375 122.976562 35.683594 158.222656 79.160156 158.222656 C 122.636719 158.222656 157.882812 122.976562 157.882812 79.5 C 157.882812 36.023438 122.636719 0.777344 79.160156 0.777344 Z M 79.160156 0.777344 " clip-rule="nonzero"/></clipPath><clipPath id="f1aa2e3a63"><rect x="0" width="158" y="0" height="159"/></clipPath><mask id="7544a1847e"><g filter="url(#ebf9158734)"><rect x="-81" width="972" fill="#000000" y="-18.749999" height="224.999994" fill-opacity="0.6"/></g></mask><clipPath id="85c25576f3"><path d="M 0.882812 0.777344 L 158.328125 0.777344 L 158.328125 158.222656 L 0.882812 158.222656 Z M 0.882812 0.777344 " clip-rule="nonzero"/></clipPath><clipPath id="1bf06221a3"><path d="M 79.605469 0.777344 C 36.128906 0.777344 0.882812 36.023438 0.882812 79.5 C 0.882812 122.976562 36.128906 158.222656 79.605469 158.222656 C 123.082031 158.222656 158.328125 122.976562 158.328125 79.5 C 158.328125 36.023438 123.082031 0.777344 79.605469 0.777344 Z M 79.605469 0.777344 " clip-rule="nonzero"/></clipPath><clipPath id="59cfa9fd63"><rect x="0" width="159" y="0" height="159"/></clipPath><clipPath id="5a6c23bf6a"><path d="M 325.730469 14.777344 L 483.175781 14.777344 L 483.175781 172.222656 L 325.730469 172.222656 Z M 325.730469 14.777344 " clip-rule="nonzero"/></clipPath><clipPath id="a9770c8ee8"><path d="M 404.453125 14.777344 C 360.972656 14.777344 325.730469 50.023438 325.730469 93.5 C 325.730469 136.976562 360.972656 172.222656 404.453125 172.222656 C 447.929688 172.222656 483.175781 136.976562 483.175781 93.5 C 483.175781 50.023438 447.929688 14.777344 404.453125 14.777344 Z M 404.453125 14.777344 " clip-rule="nonzero"/></clipPath><mask id="5f43b0a899"><g filter="url(#ebf9158734)"><rect x="-81" width="972" fill="#000000" y="-18.749999" height="224.999994" fill-opacity="0.6"/></g></mask><clipPath id="250cd185a7"><path d="M 0.921875 0.777344 L 158.367188 0.777344 L 158.367188 158.222656 L 0.921875 158.222656 Z M 0.921875 0.777344 " clip-rule="nonzero"/></clipPath><clipPath id="19f0ce6e7d"><path d="M 79.644531 0.777344 C 36.167969 0.777344 0.921875 36.023438 0.921875 79.5 C 0.921875 122.976562 36.167969 158.222656 79.644531 158.222656 C 123.125 158.222656 158.367188 122.976562 158.367188 79.5 C 158.367188 36.023438 123.125 0.777344 79.644531 0.777344 Z M 79.644531 0.777344 " clip-rule="nonzero"/></clipPath><clipPath id="81ea6effac"><rect x="0" width="159" y="0" height="159"/></clipPath><mask id="e130f18844"><g filter="url(#ebf9158734)"><rect x="-81" width="972" fill="#000000" y="-18.749999" height="224.999994" fill-opacity="0.6"/></g></mask><clipPath id="ae37eacdf4"><path d="M 0.117188 0.777344 L 157.5625 0.777344 L 157.5625 158.222656 L 0.117188 158.222656 Z M 0.117188 0.777344 " clip-rule="nonzero"/></clipPath><clipPath id="ba8cd46230"><path d="M 78.839844 0.777344 C 35.363281 0.777344 0.117188 36.023438 0.117188 79.5 C 0.117188 122.976562 35.363281 158.222656 78.839844 158.222656 C 122.316406 158.222656 157.5625 122.976562 157.5625 79.5 C 157.5625 36.023438 122.316406 0.777344 78.839844 0.777344 Z M 78.839844 0.777344 " clip-rule="nonzero"/></clipPath><clipPath id="b843de3feb"><rect x="0" width="158" y="0" height="159"/></clipPath><mask id="97071ba853"><g filter="url(#ebf9158734)"><rect x="-81" width="972" fill="#000000" y="-18.749999" height="224.999994" fill-opacity="0.6"/></g></mask><clipPath id="1a778c5087"><path d="M 0.296875 0.207031 L 106.511719 0.207031 L 106.511719 94.457031 L 0.296875 94.457031 Z M 0.296875 0.207031 " clip-rule="nonzero"/></clipPath><clipPath id="e7ad225b5c"><rect x="0" width="108" y="0" height="96"/></clipPath><mask id="131cf73465"><g filter="url(#ebf9158734)"><rect x="-81" width="972" fill="#000000" y="-18.749999" height="224.999994" fill-opacity="0.6"/></g></mask><clipPath id="38e14d7fa1"><path d="M 0.304688 0.296875 L 80.34375 0.296875 L 80.34375 106.511719 L 0.304688 106.511719 Z M 0.304688 0.296875 " clip-rule="nonzero"/></clipPath><clipPath id="62e7f2d0c8"><rect x="0" width="81" y="0" height="108"/></clipPath><mask id="d019dfcae5"><g filter="url(#ebf9158734)"><rect x="-81" width="972" fill="#000000" y="-18.749999" height="224.999994" fill-opacity="0.6"/></g></mask><clipPath id="425c0a0590"><path d="M 0.824219 6 L 93.578125 6 L 93.578125 100 L 0.824219 100 Z M 0.824219 6 " clip-rule="nonzero"/></clipPath><clipPath id="260a3ce18e"><rect x="0" width="95" y="0" height="108"/></clipPath><clipPath id="fd2ef1b3cb"><path d="M 350 50.9375 L 455.308594 50.9375 L 455.308594 136.210938 L 350 136.210938 Z M 350 50.9375 " clip-rule="nonzero"/></clipPath><mask id="a82991875a"><g filter="url(#ebf9158734)"><rect x="-81" width="972" fill="#000000" y="-18.749999" height="224.999994" fill-opacity="0.6"/></g></mask><clipPath id="566c413e1f"><path d="M 0.441406 0.9375 L 106.660156 0.9375 L 106.660156 86.210938 L 0.441406 86.210938 Z M 0.441406 0.9375 " clip-rule="nonzero"/></clipPath><clipPath id="4e27a1dfde"><rect x="0" width="108" y="0" height="87"/></clipPath></defs><g mask="url(#fc532fce15)"><g transform="matrix(1, 0, 0, 1, 10, 14)"><g clip-path="url(#f1aa2e3a63)"><g clip-path="url(#012c136ab5)"><g clip-path="url(#1013265367)"><path fill="#005bad" d="M 0.4375 0.777344 L 157.882812 0.777344 L 157.882812 158.222656 L 0.4375 158.222656 Z M 0.4375 0.777344 " fill-opacity="1" fill-rule="nonzero"/></g></g></g></g></g><g mask="url(#7544a1847e)"><g transform="matrix(1, 0, 0, 1, 167, 14)"><g clip-path="url(#59cfa9fd63)"><g clip-path="url(#85c25576f3)"><g clip-path="url(#1bf06221a3)"><path fill="#005bad" d="M 0.882812 0.777344 L 158.328125 0.777344 L 158.328125 158.222656 L 0.882812 158.222656 Z M 0.882812 0.777344 " fill-opacity="1" fill-rule="nonzero"/></g></g></g></g></g><g clip-path="url(#5a6c23bf6a)"><g clip-path="url(#a9770c8ee8)"><path fill="#005bad" d="M 325.730469 14.777344 L 483.175781 14.777344 L 483.175781 172.222656 L 325.730469 172.222656 Z M 325.730469 14.777344 " fill-opacity="1" fill-rule="nonzero"/></g></g><g mask="url(#5f43b0a899)"><g transform="matrix(1, 0, 0, 1, 483, 14)"><g clip-path="url(#81ea6effac)"><g clip-path="url(#250cd185a7)"><g clip-path="url(#19f0ce6e7d)"><path fill="#005bad" d="M 0.921875 0.777344 L 158.367188 0.777344 L 158.367188 158.222656 L 0.921875 158.222656 Z M 0.921875 0.777344 " fill-opacity="1" fill-rule="nonzero"/></g></g></g></g></g><g mask="url(#e130f18844)"><g transform="matrix(1, 0, 0, 1, 642, 14)"><g clip-path="url(#b843de3feb)"><g clip-path="url(#ae37eacdf4)"><g clip-path="url(#ba8cd46230)"><path fill="#005bad" d="M 0.117188 0.777344 L 157.5625 0.777344 L 157.5625 158.222656 L 0.117188 158.222656 Z M 0.117188 0.777344 " fill-opacity="1" fill-rule="nonzero"/></g></g></g></g></g><g mask="url(#97071ba853)"><g transform="matrix(1, 0, 0, 1, 668, 46)"><g clip-path="url(#e7ad225b5c)"><g clip-path="url(#1a778c5087)"><path fill="#ffffff" d="M 106.472656 47.242188 C 106.472656 50.554688 103.707031 53.148438 100.574219 53.148438 L 94.671875 53.148438 L 94.800781 82.640625 C 94.800781 83.136719 94.765625 83.632812 94.710938 84.128906 L 94.710938 87.113281 C 94.710938 91.179688 91.410156 94.476562 87.332031 94.476562 L 84.382812 94.476562 C 84.179688 94.476562 83.976562 94.476562 83.773438 94.457031 C 83.515625 94.476562 83.257812 94.476562 83 94.476562 L 77.007812 94.457031 L 72.582031 94.457031 C 68.507812 94.457031 65.207031 91.160156 65.207031 87.09375 L 65.207031 70.894531 C 65.207031 67.636719 62.570312 65.003906 59.304688 65.003906 L 47.503906 65.003906 C 44.242188 65.003906 41.605469 67.636719 41.605469 70.894531 L 41.605469 87.09375 C 41.605469 91.160156 38.304688 94.457031 34.226562 94.457031 L 23.921875 94.457031 C 23.644531 94.457031 23.367188 94.4375 23.089844 94.417969 C 22.871094 94.4375 22.648438 94.457031 22.425781 94.457031 L 19.476562 94.457031 C 15.402344 94.457031 12.101562 91.160156 12.101562 87.09375 L 12.101562 66.476562 C 12.101562 66.3125 12.101562 66.125 12.121094 65.960938 L 12.121094 53.132812 L 6.21875 53.132812 C 2.898438 53.132812 0.316406 50.554688 0.316406 47.222656 C 0.316406 45.566406 0.871094 44.09375 2.164062 42.804688 L 49.421875 1.679688 C 50.714844 0.390625 52.1875 0.207031 53.480469 0.207031 C 54.769531 0.207031 56.246094 0.578125 57.351562 1.496094 L 104.445312 42.824219 C 105.921875 44.109375 106.660156 45.582031 106.472656 47.242188 Z M 106.472656 47.242188 " fill-opacity="1" fill-rule="nonzero"/></g></g></g></g><g mask="url(#131cf73465)"><g transform="matrix(1, 0, 0, 1, 49, 40)"><g clip-path="url(#62e7f2d0c8)"><g clip-path="url(#38e14d7fa1)"><path fill="#ffffff" d="M 40.324219 0.359375 C 31.613281 0.359375 24.191406 5.890625 21.460938 13.621094 L 13.644531 13.621094 C 6.289062 13.621094 0.304688 19.566406 0.304688 26.882812 L 0.304688 93.191406 C 0.304688 100.503906 6.289062 106.449219 13.644531 106.449219 L 67.003906 106.449219 C 74.359375 106.449219 80.34375 100.503906 80.34375 93.191406 L 80.34375 26.882812 C 80.34375 19.566406 74.359375 13.621094 67.003906 13.621094 L 59.1875 13.621094 C 56.457031 5.890625 49.035156 0.359375 40.324219 0.359375 Z M 40.324219 13.621094 C 40.761719 13.621094 41.195312 13.664062 41.625 13.746094 C 42.054688 13.832031 42.472656 13.957031 42.875 14.125 C 43.28125 14.292969 43.664062 14.496094 44.027344 14.738281 C 44.394531 14.980469 44.730469 15.253906 45.039062 15.5625 C 45.347656 15.871094 45.625 16.207031 45.871094 16.566406 C 46.113281 16.929688 46.316406 17.3125 46.484375 17.714844 C 46.652344 18.117188 46.78125 18.53125 46.867188 18.957031 C 46.949219 19.382812 46.992188 19.816406 46.992188 20.25 C 46.992188 20.6875 46.949219 21.117188 46.867188 21.542969 C 46.78125 21.972656 46.652344 22.386719 46.484375 22.789062 C 46.316406 23.191406 46.113281 23.574219 45.871094 23.933594 C 45.625 24.296875 45.347656 24.632812 45.039062 24.941406 C 44.730469 25.246094 44.394531 25.523438 44.027344 25.765625 C 43.664062 26.007812 43.28125 26.210938 42.875 26.378906 C 42.472656 26.542969 42.054688 26.667969 41.625 26.753906 C 41.195312 26.839844 40.761719 26.882812 40.324219 26.882812 C 39.886719 26.882812 39.453125 26.839844 39.023438 26.753906 C 38.59375 26.667969 38.175781 26.542969 37.769531 26.378906 C 37.367188 26.210938 36.980469 26.007812 36.617188 25.765625 C 36.253906 25.523438 35.917969 25.246094 35.609375 24.941406 C 35.296875 24.632812 35.019531 24.296875 34.777344 23.933594 C 34.535156 23.574219 34.328125 23.191406 34.160156 22.789062 C 33.992188 22.386719 33.867188 21.972656 33.78125 21.542969 C 33.695312 21.117188 33.652344 20.6875 33.652344 20.25 C 33.652344 19.816406 33.695312 19.382812 33.78125 18.957031 C 33.867188 18.53125 33.992188 18.117188 34.160156 17.714844 C 34.328125 17.3125 34.535156 16.929688 34.777344 16.566406 C 35.019531 16.207031 35.296875 15.871094 35.609375 15.5625 C 35.917969 15.253906 36.253906 14.980469 36.617188 14.738281 C 36.980469 14.496094 37.367188 14.292969 37.769531 14.125 C 38.175781 13.957031 38.59375 13.832031 39.023438 13.746094 C 39.453125 13.664062 39.886719 13.621094 40.324219 13.621094 Z M 63.875 56.925781 L 37.199219 83.449219 C 35.238281 85.398438 32.070312 85.398438 30.132812 83.449219 L 16.769531 70.1875 C 14.8125 68.242188 14.8125 65.089844 16.769531 63.164062 C 18.730469 61.238281 21.898438 61.214844 23.835938 63.164062 L 33.632812 72.902344 L 56.789062 49.882812 C 58.75 47.933594 61.917969 47.933594 63.855469 49.882812 C 65.792969 51.828125 65.816406 54.980469 63.855469 56.90625 Z M 63.875 56.925781 " fill-opacity="1" fill-rule="nonzero"/></g></g></g></g><g mask="url(#d019dfcae5)"><g transform="matrix(1, 0, 0, 1, 200, 40)"><g clip-path="url(#260a3ce18e)"><g clip-path="url(#425c0a0590)"><path fill="#ffffff" d="M 11.320312 12.453125 L 0.824219 33.5 L 43.886719 33.5 L 43.886719 6.957031 L 20.222656 6.957031 C 16.457031 6.957031 13.019531 9.09375 11.320312 12.453125 Z M 50.515625 33.5 L 93.578125 33.5 L 83.082031 12.453125 C 81.382812 9.09375 77.945312 6.957031 74.179688 6.957031 L 50.515625 6.957031 Z M 93.578125 40.132812 L 0.824219 40.132812 L 0.824219 86.582031 C 0.824219 93.898438 6.765625 99.851562 14.074219 99.851562 L 80.328125 99.851562 C 87.636719 99.851562 93.578125 93.898438 93.578125 86.582031 Z M 93.578125 40.132812 " fill-opacity="1" fill-rule="nonzero"/></g></g></g></g><g clip-path="url(#fd2ef1b3cb)"><path fill="#ffffff" d="M 455.304688 50.9375 L 455.304688 117.554688 C 455.304688 127.867188 446.992188 136.210938 436.71875 136.210938 C 426.59375 136.210938 418.378906 128.097656 418.128906 118.007812 L 357.125 134.695312 C 354.285156 135.460938 351.382812 133.796875 350.601562 130.945312 C 349.820312 128.097656 351.496094 125.183594 354.335938 124.402344 L 407.507812 109.863281 L 407.507812 61.597656 C 407.507812 55.71875 412.273438 50.9375 418.128906 50.9375 Z M 444.683594 117.554688 C 444.683594 117.03125 444.632812 116.511719 444.53125 115.996094 C 444.429688 115.480469 444.277344 114.980469 444.078125 114.496094 C 443.878906 114.011719 443.632812 113.550781 443.339844 113.113281 C 443.050781 112.679688 442.71875 112.273438 442.351562 111.902344 C 441.980469 111.53125 441.578125 111.199219 441.144531 110.910156 C 440.707031 110.617188 440.25 110.371094 439.765625 110.171875 C 439.28125 109.96875 438.785156 109.816406 438.273438 109.714844 C 437.757812 109.613281 437.242188 109.5625 436.71875 109.5625 C 436.195312 109.5625 435.675781 109.613281 435.164062 109.714844 C 434.652344 109.816406 434.152344 109.96875 433.667969 110.171875 C 433.1875 110.371094 432.726562 110.617188 432.292969 110.910156 C 431.855469 111.199219 431.453125 111.53125 431.085938 111.902344 C 430.714844 112.273438 430.386719 112.679688 430.09375 113.113281 C 429.804688 113.550781 429.558594 114.011719 429.359375 114.496094 C 429.15625 114.980469 429.007812 115.480469 428.90625 115.996094 C 428.804688 116.511719 428.75 117.03125 428.75 117.554688 C 428.75 118.082031 428.804688 118.601562 428.90625 119.117188 C 429.007812 119.632812 429.15625 120.132812 429.359375 120.617188 C 429.558594 121.101562 429.804688 121.5625 430.09375 121.996094 C 430.386719 122.433594 430.714844 122.839844 431.085938 123.210938 C 431.453125 123.582031 431.855469 123.910156 432.292969 124.203125 C 432.726562 124.496094 433.1875 124.742188 433.667969 124.941406 C 434.152344 125.144531 434.652344 125.292969 435.164062 125.398438 C 435.675781 125.5 436.195312 125.550781 436.71875 125.550781 C 437.242188 125.550781 437.757812 125.5 438.273438 125.398438 C 438.785156 125.292969 439.28125 125.144531 439.765625 124.941406 C 440.25 124.742188 440.707031 124.496094 441.144531 124.203125 C 441.578125 123.910156 441.980469 123.582031 442.351562 123.210938 C 442.71875 122.839844 443.050781 122.433594 443.339844 121.996094 C 443.632812 121.5625 443.878906 121.101562 444.078125 120.617188 C 444.277344 120.132812 444.429688 119.632812 444.53125 119.117188 C 444.632812 118.601562 444.683594 118.082031 444.683594 117.554688 Z M 352.925781 85.53125 C 352.160156 82.679688 353.855469 79.765625 356.675781 79 L 364.375 76.933594 L 367.8125 89.808594 C 368.195312 91.226562 369.652344 92.074219 371.066406 91.691406 L 376.191406 90.308594 C 377.601562 89.925781 378.449219 88.460938 378.066406 87.046875 L 374.632812 74.171875 L 382.332031 72.105469 C 385.171875 71.339844 388.074219 73.039062 388.839844 75.871094 L 395.710938 101.601562 C 396.472656 104.449219 394.78125 107.363281 391.957031 108.128906 L 366.300781 115.042969 C 363.464844 115.808594 360.558594 114.109375 359.796875 111.277344 Z M 352.925781 85.53125 " fill-opacity="1" fill-rule="nonzero"/></g><g mask="url(#a82991875a)"><g transform="matrix(1, 0, 0, 1, 509, 50)"><g clip-path="url(#4e27a1dfde)"><g clip-path="url(#566c413e1f)"><path fill="#ffffff" d="M 19.03125 0.9375 C 14.632812 0.9375 11.0625 4.519531 11.0625 8.929688 L 11.0625 16.925781 L 3.097656 16.925781 C 1.636719 16.925781 0.441406 18.125 0.441406 19.589844 C 0.441406 21.054688 1.636719 22.253906 3.097656 22.253906 L 45.582031 22.253906 C 47.042969 22.253906 48.238281 23.453125 48.238281 24.921875 C 48.238281 26.386719 47.042969 27.585938 45.582031 27.585938 L 8.410156 27.585938 C 6.949219 27.585938 5.753906 28.785156 5.753906 30.25 C 5.753906 31.714844 6.949219 32.914062 8.410156 32.914062 L 40.273438 32.914062 C 41.734375 32.914062 42.929688 34.113281 42.929688 35.578125 C 42.929688 37.046875 41.734375 38.242188 40.273438 38.242188 L 3.097656 38.242188 C 1.636719 38.242188 0.441406 39.441406 0.441406 40.910156 C 0.441406 42.375 1.636719 43.574219 3.097656 43.574219 L 34.960938 43.574219 C 36.421875 43.574219 37.617188 44.773438 37.617188 46.238281 C 37.617188 47.703125 36.421875 48.902344 34.960938 48.902344 L 11.0625 48.902344 L 11.0625 70.222656 C 11.0625 79.046875 18.199219 86.210938 26.996094 86.210938 C 35.792969 86.210938 42.929688 79.046875 42.929688 70.222656 L 64.171875 70.222656 C 64.171875 79.046875 71.308594 86.210938 80.101562 86.210938 C 88.898438 86.210938 96.035156 79.046875 96.035156 70.222656 L 101.347656 70.222656 C 104.285156 70.222656 106.65625 67.839844 106.65625 64.890625 C 106.65625 61.945312 104.285156 59.5625 101.347656 59.5625 L 101.347656 40.460938 C 101.347656 37.628906 100.234375 34.914062 98.242188 32.914062 L 85.414062 20.039062 C 83.421875 18.042969 80.71875 16.925781 77.894531 16.925781 L 69.480469 16.925781 L 69.480469 8.929688 C 69.480469 4.519531 65.914062 0.9375 61.515625 0.9375 Z M 90.726562 40.460938 L 90.726562 43.574219 L 69.480469 43.574219 L 69.480469 27.585938 L 77.894531 27.585938 Z M 26.996094 62.226562 C 27.519531 62.226562 28.039062 62.277344 28.550781 62.378906 C 29.0625 62.484375 29.5625 62.632812 30.042969 62.835938 C 30.527344 63.035156 30.988281 63.28125 31.421875 63.574219 C 31.855469 63.867188 32.257812 64.199219 32.628906 64.570312 C 33 64.941406 33.328125 65.34375 33.621094 65.78125 C 33.910156 66.214844 34.15625 66.675781 34.355469 67.160156 C 34.554688 67.648438 34.707031 68.148438 34.808594 68.660156 C 34.910156 69.175781 34.960938 69.695312 34.960938 70.222656 C 34.960938 70.746094 34.910156 71.265625 34.808594 71.78125 C 34.707031 72.296875 34.554688 72.796875 34.355469 73.28125 C 34.15625 73.765625 33.910156 74.226562 33.621094 74.664062 C 33.328125 75.097656 33 75.503906 32.628906 75.875 C 32.257812 76.246094 31.855469 76.578125 31.421875 76.867188 C 30.988281 77.160156 30.527344 77.40625 30.042969 77.605469 C 29.5625 77.808594 29.0625 77.960938 28.550781 78.0625 C 28.039062 78.164062 27.519531 78.214844 26.996094 78.214844 C 26.472656 78.214844 25.957031 78.164062 25.441406 78.0625 C 24.929688 77.960938 24.429688 77.808594 23.949219 77.605469 C 23.464844 77.40625 23.003906 77.160156 22.570312 76.867188 C 22.136719 76.578125 21.734375 76.246094 21.363281 75.875 C 20.992188 75.503906 20.664062 75.097656 20.371094 74.664062 C 20.082031 74.226562 19.835938 73.765625 19.636719 73.28125 C 19.4375 72.796875 19.285156 72.296875 19.183594 71.78125 C 19.082031 71.265625 19.03125 70.746094 19.03125 70.222656 C 19.03125 69.695312 19.082031 69.175781 19.183594 68.660156 C 19.285156 68.148438 19.4375 67.648438 19.636719 67.160156 C 19.835938 66.675781 20.082031 66.214844 20.371094 65.78125 C 20.664062 65.34375 20.992188 64.941406 21.363281 64.570312 C 21.734375 64.199219 22.136719 63.867188 22.570312 63.574219 C 23.003906 63.28125 23.464844 63.035156 23.949219 62.835938 C 24.429688 62.632812 24.929688 62.484375 25.441406 62.378906 C 25.957031 62.277344 26.472656 62.226562 26.996094 62.226562 Z M 72.136719 70.222656 C 72.136719 69.695312 72.1875 69.175781 72.289062 68.660156 C 72.390625 68.148438 72.542969 67.648438 72.742188 67.160156 C 72.945312 66.675781 73.1875 66.214844 73.480469 65.78125 C 73.769531 65.34375 74.101562 64.941406 74.46875 64.570312 C 74.839844 64.199219 75.242188 63.867188 75.675781 63.574219 C 76.113281 63.28125 76.570312 63.035156 77.054688 62.835938 C 77.539062 62.632812 78.035156 62.484375 78.550781 62.378906 C 79.0625 62.277344 79.582031 62.226562 80.101562 62.226562 C 80.625 62.226562 81.144531 62.277344 81.65625 62.378906 C 82.171875 62.484375 82.667969 62.632812 83.152344 62.835938 C 83.636719 63.035156 84.09375 63.28125 84.527344 63.574219 C 84.964844 63.867188 85.367188 64.199219 85.734375 64.570312 C 86.105469 64.941406 86.4375 65.34375 86.726562 65.78125 C 87.015625 66.214844 87.261719 66.675781 87.464844 67.160156 C 87.664062 67.648438 87.8125 68.148438 87.917969 68.660156 C 88.019531 69.175781 88.070312 69.695312 88.070312 70.222656 C 88.070312 70.746094 88.019531 71.265625 87.917969 71.78125 C 87.8125 72.296875 87.664062 72.796875 87.464844 73.28125 C 87.261719 73.765625 87.015625 74.226562 86.726562 74.664062 C 86.4375 75.097656 86.105469 75.503906 85.734375 75.875 C 85.367188 76.246094 84.964844 76.578125 84.527344 76.867188 C 84.09375 77.160156 83.636719 77.40625 83.152344 77.605469 C 82.667969 77.808594 82.171875 77.960938 81.65625 78.0625 C 81.144531 78.164062 80.625 78.214844 80.101562 78.214844 C 79.582031 78.214844 79.0625 78.164062 78.550781 78.0625 C 78.035156 77.960938 77.539062 77.808594 77.054688 77.605469 C 76.570312 77.40625 76.113281 77.160156 75.675781 76.867188 C 75.242188 76.578125 74.839844 76.246094 74.46875 75.875 C 74.101562 75.503906 73.769531 75.097656 73.480469 74.664062 C 73.1875 74.226562 72.945312 73.765625 72.742188 73.28125 C 72.542969 72.796875 72.390625 72.296875 72.289062 71.78125 C 72.1875 71.265625 72.136719 70.746094 72.136719 70.222656 Z M 72.136719 70.222656 " fill-opacity="1" fill-rule="nonzero"/></g></g></g></g></svg>