<svg xmlns="http://www.w3.org/2000/svg" xmlns:xlink="http://www.w3.org/1999/xlink" width="1080" zoomAndPan="magnify" viewBox="0 0 810 187.499995" height="250" preserveAspectRatio="xMidYMid meet" version="1.0"><defs><filter x="0%" y="0%" width="100%" height="100%" id="ebe181b03b"><feColorMatrix values="0 0 0 0 1 0 0 0 0 1 0 0 0 0 1 0 0 0 1 0" color-interpolation-filters="sRGB"/></filter><mask id="cac4dd2456"><g filter="url(#ebe181b03b)"><rect x="-81" width="972" fill="#000000" y="-18.749999" height="224.999994" fill-opacity="0.6"/></g></mask><clipPath id="f9b2afa91b"><path d="M 0.4375 0.777344 L 157.882812 0.777344 L 157.882812 158.222656 L 0.4375 158.222656 Z M 0.4375 0.777344 " clip-rule="nonzero"/></clipPath><clipPath id="1362f2b0e9"><path d="M 79.160156 0.777344 C 35.683594 0.777344 0.4375 36.023438 0.4375 79.5 C 0.4375 122.976562 35.683594 158.222656 79.160156 158.222656 C 122.636719 158.222656 157.882812 122.976562 157.882812 79.5 C 157.882812 36.023438 122.636719 0.777344 79.160156 0.777344 Z M 79.160156 0.777344 " clip-rule="nonzero"/></clipPath><clipPath id="590913a257"><rect x="0" width="158" y="0" height="159"/></clipPath><clipPath id="5d3f081452"><path d="M 167.882812 14.777344 L 325.328125 14.777344 L 325.328125 172.222656 L 167.882812 172.222656 Z M 167.882812 14.777344 " clip-rule="nonzero"/></clipPath><clipPath id="58b35c0dcf"><path d="M 246.605469 14.777344 C 203.128906 14.777344 167.882812 50.023438 167.882812 93.5 C 167.882812 136.976562 203.128906 172.222656 246.605469 172.222656 C 290.082031 172.222656 325.328125 136.976562 325.328125 93.5 C 325.328125 50.023438 290.082031 14.777344 246.605469 14.777344 Z M 246.605469 14.777344 " clip-rule="nonzero"/></clipPath><mask id="15b727b2ea"><g filter="url(#ebe181b03b)"><rect x="-81" width="972" fill="#000000" y="-18.749999" height="224.999994" fill-opacity="0.6"/></g></mask><clipPath id="fc50b5371c"><path d="M 0.730469 0.777344 L 158.175781 0.777344 L 158.175781 158.222656 L 0.730469 158.222656 Z M 0.730469 0.777344 " clip-rule="nonzero"/></clipPath><clipPath id="ea52701c65"><path d="M 79.453125 0.777344 C 35.972656 0.777344 0.730469 36.023438 0.730469 79.5 C 0.730469 122.976562 35.972656 158.222656 79.453125 158.222656 C 122.929688 158.222656 158.175781 122.976562 158.175781 79.5 C 158.175781 36.023438 122.929688 0.777344 79.453125 0.777344 Z M 79.453125 0.777344 " clip-rule="nonzero"/></clipPath><clipPath id="be23f29af9"><rect x="0" width="159" y="0" height="159"/></clipPath><mask id="70b298c57b"><g filter="url(#ebe181b03b)"><rect x="-81" width="972" fill="#000000" y="-18.749999" height="224.999994" fill-opacity="0.6"/></g></mask><clipPath id="297e795d1f"><path d="M 0.921875 0.777344 L 158.367188 0.777344 L 158.367188 158.222656 L 0.921875 158.222656 Z M 0.921875 0.777344 " clip-rule="nonzero"/></clipPath><clipPath id="1912519722"><path d="M 79.644531 0.777344 C 36.167969 0.777344 0.921875 36.023438 0.921875 79.5 C 0.921875 122.976562 36.167969 158.222656 79.644531 158.222656 C 123.125 158.222656 158.367188 122.976562 158.367188 79.5 C 158.367188 36.023438 123.125 0.777344 79.644531 0.777344 Z M 79.644531 0.777344 " clip-rule="nonzero"/></clipPath><clipPath id="5b5f4a8be6"><rect x="0" width="159" y="0" height="159"/></clipPath><mask id="d75dd80f70"><g filter="url(#ebe181b03b)"><rect x="-81" width="972" fill="#000000" y="-18.749999" height="224.999994" fill-opacity="0.6"/></g></mask><clipPath id="f339a4455a"><path d="M 0.117188 0.777344 L 157.5625 0.777344 L 157.5625 158.222656 L 0.117188 158.222656 Z M 0.117188 0.777344 " clip-rule="nonzero"/></clipPath><clipPath id="6e007dbd67"><path d="M 78.839844 0.777344 C 35.363281 0.777344 0.117188 36.023438 0.117188 79.5 C 0.117188 122.976562 35.363281 158.222656 78.839844 158.222656 C 122.316406 158.222656 157.5625 122.976562 157.5625 79.5 C 157.5625 36.023438 122.316406 0.777344 78.839844 0.777344 Z M 78.839844 0.777344 " clip-rule="nonzero"/></clipPath><clipPath id="6eccf3b3cd"><rect x="0" width="158" y="0" height="159"/></clipPath><mask id="4a88198c2a"><g filter="url(#ebe181b03b)"><rect x="-81" width="972" fill="#000000" y="-18.749999" height="224.999994" fill-opacity="0.6"/></g></mask><clipPath id="302ec05c4d"><path d="M 0.296875 0.207031 L 106.511719 0.207031 L 106.511719 94.457031 L 0.296875 94.457031 Z M 0.296875 0.207031 " clip-rule="nonzero"/></clipPath><clipPath id="bc32491ce2"><rect x="0" width="108" y="0" height="96"/></clipPath><mask id="a34887fdf9"><g filter="url(#ebe181b03b)"><rect x="-81" width="972" fill="#000000" y="-18.749999" height="224.999994" fill-opacity="0.6"/></g></mask><clipPath id="e47ad46a66"><path d="M 0.304688 0.296875 L 80.34375 0.296875 L 80.34375 106.511719 L 0.304688 106.511719 Z M 0.304688 0.296875 " clip-rule="nonzero"/></clipPath><clipPath id="9eaa2cf674"><rect x="0" width="81" y="0" height="108"/></clipPath><clipPath id="0a5172d05d"><path d="M 200.824219 46 L 293.578125 46 L 293.578125 140 L 200.824219 140 Z M 200.824219 46 " clip-rule="nonzero"/></clipPath><mask id="faf0526bbf"><g filter="url(#ebe181b03b)"><rect x="-81" width="972" fill="#000000" y="-18.749999" height="224.999994" fill-opacity="0.6"/></g></mask><clipPath id="a8e4149210"><path d="M 2 0.9375 L 107.308594 0.9375 L 107.308594 86.210938 L 2 86.210938 Z M 2 0.9375 " clip-rule="nonzero"/></clipPath><clipPath id="db5c2781b6"><rect x="0" width="109" y="0" height="87"/></clipPath><mask id="0f59005fe6"><g filter="url(#ebe181b03b)"><rect x="-81" width="972" fill="#000000" y="-18.749999" height="224.999994" fill-opacity="0.6"/></g></mask><clipPath id="978e9c8ddb"><path d="M 0.441406 0.9375 L 106.660156 0.9375 L 106.660156 86.210938 L 0.441406 86.210938 Z M 0.441406 0.9375 " clip-rule="nonzero"/></clipPath><clipPath id="40cc004df4"><rect x="0" width="108" y="0" height="87"/></clipPath></defs><g mask="url(#cac4dd2456)"><g transform="matrix(1, 0, 0, 1, 10, 14)"><g clip-path="url(#590913a257)"><g clip-path="url(#f9b2afa91b)"><g clip-path="url(#1362f2b0e9)"><path fill="#005bad" d="M 0.4375 0.777344 L 157.882812 0.777344 L 157.882812 158.222656 L 0.4375 158.222656 Z M 0.4375 0.777344 " fill-opacity="1" fill-rule="nonzero"/></g></g></g></g></g><g clip-path="url(#5d3f081452)"><g clip-path="url(#58b35c0dcf)"><path fill="#005bad" d="M 167.882812 14.777344 L 325.328125 14.777344 L 325.328125 172.222656 L 167.882812 172.222656 Z M 167.882812 14.777344 " fill-opacity="1" fill-rule="nonzero"/></g></g><g mask="url(#15b727b2ea)"><g transform="matrix(1, 0, 0, 1, 325, 14)"><g clip-path="url(#be23f29af9)"><g clip-path="url(#fc50b5371c)"><g clip-path="url(#ea52701c65)"><path fill="#005bad" d="M 0.730469 0.777344 L 158.175781 0.777344 L 158.175781 158.222656 L 0.730469 158.222656 Z M 0.730469 0.777344 " fill-opacity="1" fill-rule="nonzero"/></g></g></g></g></g><g mask="url(#70b298c57b)"><g transform="matrix(1, 0, 0, 1, 483, 14)"><g clip-path="url(#5b5f4a8be6)"><g clip-path="url(#297e795d1f)"><g clip-path="url(#1912519722)"><path fill="#005bad" d="M 0.921875 0.777344 L 158.367188 0.777344 L 158.367188 158.222656 L 0.921875 158.222656 Z M 0.921875 0.777344 " fill-opacity="1" fill-rule="nonzero"/></g></g></g></g></g><g mask="url(#d75dd80f70)"><g transform="matrix(1, 0, 0, 1, 642, 14)"><g clip-path="url(#6eccf3b3cd)"><g clip-path="url(#f339a4455a)"><g clip-path="url(#6e007dbd67)"><path fill="#005bad" d="M 0.117188 0.777344 L 157.5625 0.777344 L 157.5625 158.222656 L 0.117188 158.222656 Z M 0.117188 0.777344 " fill-opacity="1" fill-rule="nonzero"/></g></g></g></g></g><g mask="url(#4a88198c2a)"><g transform="matrix(1, 0, 0, 1, 668, 46)"><g clip-path="url(#bc32491ce2)"><g clip-path="url(#302ec05c4d)"><path fill="#ffffff" d="M 106.472656 47.242188 C 106.472656 50.554688 103.707031 53.148438 100.574219 53.148438 L 94.671875 53.148438 L 94.800781 82.640625 C 94.800781 83.136719 94.765625 83.632812 94.710938 84.128906 L 94.710938 87.113281 C 94.710938 91.179688 91.410156 94.476562 87.332031 94.476562 L 84.382812 94.476562 C 84.179688 94.476562 83.976562 94.476562 83.773438 94.457031 C 83.515625 94.476562 83.257812 94.476562 83 94.476562 L 77.007812 94.457031 L 72.582031 94.457031 C 68.507812 94.457031 65.207031 91.160156 65.207031 87.09375 L 65.207031 70.894531 C 65.207031 67.636719 62.570312 65.003906 59.304688 65.003906 L 47.503906 65.003906 C 44.242188 65.003906 41.605469 67.636719 41.605469 70.894531 L 41.605469 87.09375 C 41.605469 91.160156 38.304688 94.457031 34.226562 94.457031 L 23.921875 94.457031 C 23.644531 94.457031 23.367188 94.4375 23.089844 94.417969 C 22.871094 94.4375 22.648438 94.457031 22.425781 94.457031 L 19.476562 94.457031 C 15.402344 94.457031 12.101562 91.160156 12.101562 87.09375 L 12.101562 66.476562 C 12.101562 66.3125 12.101562 66.125 12.121094 65.960938 L 12.121094 53.132812 L 6.21875 53.132812 C 2.898438 53.132812 0.316406 50.554688 0.316406 47.222656 C 0.316406 45.566406 0.871094 44.09375 2.164062 42.804688 L 49.421875 1.679688 C 50.714844 0.390625 52.1875 0.207031 53.480469 0.207031 C 54.769531 0.207031 56.246094 0.578125 57.351562 1.496094 L 104.445312 42.824219 C 105.921875 44.109375 106.660156 45.582031 106.472656 47.242188 Z M 106.472656 47.242188 " fill-opacity="1" fill-rule="nonzero"/></g></g></g></g><g mask="url(#a34887fdf9)"><g transform="matrix(1, 0, 0, 1, 49, 40)"><g clip-path="url(#9eaa2cf674)"><g clip-path="url(#e47ad46a66)"><path fill="#ffffff" d="M 40.324219 0.359375 C 31.613281 0.359375 24.191406 5.890625 21.460938 13.621094 L 13.644531 13.621094 C 6.289062 13.621094 0.304688 19.566406 0.304688 26.882812 L 0.304688 93.191406 C 0.304688 100.503906 6.289062 106.449219 13.644531 106.449219 L 67.003906 106.449219 C 74.359375 106.449219 80.34375 100.503906 80.34375 93.191406 L 80.34375 26.882812 C 80.34375 19.566406 74.359375 13.621094 67.003906 13.621094 L 59.1875 13.621094 C 56.457031 5.890625 49.035156 0.359375 40.324219 0.359375 Z M 40.324219 13.621094 C 40.761719 13.621094 41.195312 13.664062 41.625 13.746094 C 42.054688 13.832031 42.472656 13.957031 42.875 14.125 C 43.28125 14.292969 43.664062 14.496094 44.027344 14.738281 C 44.394531 14.980469 44.730469 15.253906 45.039062 15.5625 C 45.347656 15.871094 45.625 16.207031 45.871094 16.566406 C 46.113281 16.929688 46.316406 17.3125 46.484375 17.714844 C 46.652344 18.117188 46.78125 18.53125 46.867188 18.957031 C 46.949219 19.382812 46.992188 19.816406 46.992188 20.25 C 46.992188 20.6875 46.949219 21.117188 46.867188 21.542969 C 46.78125 21.972656 46.652344 22.386719 46.484375 22.789062 C 46.316406 23.191406 46.113281 23.574219 45.871094 23.933594 C 45.625 24.296875 45.347656 24.632812 45.039062 24.941406 C 44.730469 25.246094 44.394531 25.523438 44.027344 25.765625 C 43.664062 26.007812 43.28125 26.210938 42.875 26.378906 C 42.472656 26.542969 42.054688 26.667969 41.625 26.753906 C 41.195312 26.839844 40.761719 26.882812 40.324219 26.882812 C 39.886719 26.882812 39.453125 26.839844 39.023438 26.753906 C 38.59375 26.667969 38.175781 26.542969 37.769531 26.378906 C 37.367188 26.210938 36.980469 26.007812 36.617188 25.765625 C 36.253906 25.523438 35.917969 25.246094 35.609375 24.941406 C 35.296875 24.632812 35.019531 24.296875 34.777344 23.933594 C 34.535156 23.574219 34.328125 23.191406 34.160156 22.789062 C 33.992188 22.386719 33.867188 21.972656 33.78125 21.542969 C 33.695312 21.117188 33.652344 20.6875 33.652344 20.25 C 33.652344 19.816406 33.695312 19.382812 33.78125 18.957031 C 33.867188 18.53125 33.992188 18.117188 34.160156 17.714844 C 34.328125 17.3125 34.535156 16.929688 34.777344 16.566406 C 35.019531 16.207031 35.296875 15.871094 35.609375 15.5625 C 35.917969 15.253906 36.253906 14.980469 36.617188 14.738281 C 36.980469 14.496094 37.367188 14.292969 37.769531 14.125 C 38.175781 13.957031 38.59375 13.832031 39.023438 13.746094 C 39.453125 13.664062 39.886719 13.621094 40.324219 13.621094 Z M 63.875 56.925781 L 37.199219 83.449219 C 35.238281 85.398438 32.070312 85.398438 30.132812 83.449219 L 16.769531 70.1875 C 14.8125 68.242188 14.8125 65.089844 16.769531 63.164062 C 18.730469 61.238281 21.898438 61.214844 23.835938 63.164062 L 33.632812 72.902344 L 56.789062 49.882812 C 58.75 47.933594 61.917969 47.933594 63.855469 49.882812 C 65.792969 51.828125 65.816406 54.980469 63.855469 56.90625 Z M 63.875 56.925781 " fill-opacity="1" fill-rule="nonzero"/></g></g></g></g><g clip-path="url(#0a5172d05d)"><path fill="#ffffff" d="M 211.320312 52.453125 L 200.824219 73.5 L 243.886719 73.5 L 243.886719 46.957031 L 220.222656 46.957031 C 216.457031 46.957031 213.019531 49.09375 211.320312 52.453125 Z M 250.515625 73.5 L 293.578125 73.5 L 283.082031 52.453125 C 281.382812 49.09375 277.945312 46.957031 274.179688 46.957031 L 250.515625 46.957031 Z M 293.578125 80.132812 L 200.824219 80.132812 L 200.824219 126.582031 C 200.824219 133.898438 206.765625 139.851562 214.074219 139.851562 L 280.328125 139.851562 C 287.636719 139.851562 293.578125 133.898438 293.578125 126.582031 Z M 293.578125 80.132812 " fill-opacity="1" fill-rule="nonzero"/></g><g mask="url(#faf0526bbf)"><g transform="matrix(1, 0, 0, 1, 348, 50)"><g clip-path="url(#db5c2781b6)"><g clip-path="url(#a8e4149210)"><path fill="#ffffff" d="M 107.304688 0.9375 L 107.304688 67.554688 C 107.304688 77.867188 98.992188 86.210938 88.71875 86.210938 C 78.59375 86.210938 70.378906 78.097656 70.128906 68.007812 L 9.125 84.695312 C 6.285156 85.460938 3.382812 83.796875 2.601562 80.945312 C 1.820312 78.097656 3.496094 75.183594 6.335938 74.402344 L 59.507812 59.863281 L 59.507812 11.597656 C 59.507812 5.71875 64.273438 0.9375 70.128906 0.9375 Z M 96.683594 67.554688 C 96.683594 67.03125 96.632812 66.511719 96.53125 65.996094 C 96.429688 65.480469 96.277344 64.980469 96.078125 64.496094 C 95.878906 64.011719 95.632812 63.550781 95.339844 63.113281 C 95.050781 62.679688 94.71875 62.273438 94.351562 61.902344 C 93.980469 61.53125 93.578125 61.199219 93.144531 60.910156 C 92.707031 60.617188 92.25 60.371094 91.765625 60.171875 C 91.28125 59.96875 90.785156 59.816406 90.273438 59.714844 C 89.757812 59.613281 89.242188 59.5625 88.71875 59.5625 C 88.195312 59.5625 87.675781 59.613281 87.164062 59.714844 C 86.652344 59.816406 86.152344 59.96875 85.667969 60.171875 C 85.1875 60.371094 84.726562 60.617188 84.292969 60.910156 C 83.855469 61.199219 83.453125 61.53125 83.085938 61.902344 C 82.714844 62.273438 82.386719 62.679688 82.09375 63.113281 C 81.804688 63.550781 81.558594 64.011719 81.359375 64.496094 C 81.15625 64.980469 81.007812 65.480469 80.90625 65.996094 C 80.804688 66.511719 80.75 67.03125 80.75 67.554688 C 80.75 68.082031 80.804688 68.601562 80.90625 69.117188 C 81.007812 69.632812 81.15625 70.132812 81.359375 70.617188 C 81.558594 71.101562 81.804688 71.5625 82.09375 71.996094 C 82.386719 72.433594 82.714844 72.839844 83.085938 73.210938 C 83.453125 73.582031 83.855469 73.910156 84.292969 74.203125 C 84.726562 74.496094 85.1875 74.742188 85.667969 74.941406 C 86.152344 75.144531 86.652344 75.292969 87.164062 75.398438 C 87.675781 75.5 88.195312 75.550781 88.71875 75.550781 C 89.242188 75.550781 89.757812 75.5 90.273438 75.398438 C 90.785156 75.292969 91.28125 75.144531 91.765625 74.941406 C 92.25 74.742188 92.707031 74.496094 93.144531 74.203125 C 93.578125 73.910156 93.980469 73.582031 94.351562 73.210938 C 94.71875 72.839844 95.050781 72.433594 95.339844 71.996094 C 95.632812 71.5625 95.878906 71.101562 96.078125 70.617188 C 96.277344 70.132812 96.429688 69.632812 96.53125 69.117188 C 96.632812 68.601562 96.683594 68.082031 96.683594 67.554688 Z M 4.925781 35.53125 C 4.160156 32.679688 5.855469 29.765625 8.675781 29 L 16.375 26.933594 L 19.8125 39.808594 C 20.195312 41.226562 21.652344 42.074219 23.066406 41.691406 L 28.191406 40.308594 C 29.601562 39.925781 30.449219 38.460938 30.066406 37.046875 L 26.632812 24.171875 L 34.332031 22.105469 C 37.171875 21.339844 40.074219 23.039062 40.839844 25.871094 L 47.710938 51.601562 C 48.472656 54.449219 46.78125 57.363281 43.957031 58.128906 L 18.300781 65.042969 C 15.464844 65.808594 12.558594 64.109375 11.796875 61.277344 Z M 4.925781 35.53125 " fill-opacity="1" fill-rule="nonzero"/></g></g></g></g><g mask="url(#0f59005fe6)"><g transform="matrix(1, 0, 0, 1, 509, 50)"><g clip-path="url(#40cc004df4)"><g clip-path="url(#978e9c8ddb)"><path fill="#ffffff" d="M 19.03125 0.9375 C 14.632812 0.9375 11.0625 4.519531 11.0625 8.929688 L 11.0625 16.925781 L 3.097656 16.925781 C 1.636719 16.925781 0.441406 18.125 0.441406 19.589844 C 0.441406 21.054688 1.636719 22.253906 3.097656 22.253906 L 45.582031 22.253906 C 47.042969 22.253906 48.238281 23.453125 48.238281 24.921875 C 48.238281 26.386719 47.042969 27.585938 45.582031 27.585938 L 8.410156 27.585938 C 6.949219 27.585938 5.753906 28.785156 5.753906 30.25 C 5.753906 31.714844 6.949219 32.914062 8.410156 32.914062 L 40.273438 32.914062 C 41.734375 32.914062 42.929688 34.113281 42.929688 35.578125 C 42.929688 37.046875 41.734375 38.242188 40.273438 38.242188 L 3.097656 38.242188 C 1.636719 38.242188 0.441406 39.441406 0.441406 40.910156 C 0.441406 42.375 1.636719 43.574219 3.097656 43.574219 L 34.960938 43.574219 C 36.421875 43.574219 37.617188 44.773438 37.617188 46.238281 C 37.617188 47.703125 36.421875 48.902344 34.960938 48.902344 L 11.0625 48.902344 L 11.0625 70.222656 C 11.0625 79.046875 18.199219 86.210938 26.996094 86.210938 C 35.792969 86.210938 42.929688 79.046875 42.929688 70.222656 L 64.171875 70.222656 C 64.171875 79.046875 71.308594 86.210938 80.101562 86.210938 C 88.898438 86.210938 96.035156 79.046875 96.035156 70.222656 L 101.347656 70.222656 C 104.285156 70.222656 106.65625 67.839844 106.65625 64.890625 C 106.65625 61.945312 104.285156 59.5625 101.347656 59.5625 L 101.347656 40.460938 C 101.347656 37.628906 100.234375 34.914062 98.242188 32.914062 L 85.414062 20.039062 C 83.421875 18.042969 80.71875 16.925781 77.894531 16.925781 L 69.480469 16.925781 L 69.480469 8.929688 C 69.480469 4.519531 65.914062 0.9375 61.515625 0.9375 Z M 90.726562 40.460938 L 90.726562 43.574219 L 69.480469 43.574219 L 69.480469 27.585938 L 77.894531 27.585938 Z M 26.996094 62.226562 C 27.519531 62.226562 28.039062 62.277344 28.550781 62.378906 C 29.0625 62.484375 29.5625 62.632812 30.042969 62.835938 C 30.527344 63.035156 30.988281 63.28125 31.421875 63.574219 C 31.855469 63.867188 32.257812 64.199219 32.628906 64.570312 C 33 64.941406 33.328125 65.34375 33.621094 65.78125 C 33.910156 66.214844 34.15625 66.675781 34.355469 67.160156 C 34.554688 67.648438 34.707031 68.148438 34.808594 68.660156 C 34.910156 69.175781 34.960938 69.695312 34.960938 70.222656 C 34.960938 70.746094 34.910156 71.265625 34.808594 71.78125 C 34.707031 72.296875 34.554688 72.796875 34.355469 73.28125 C 34.15625 73.765625 33.910156 74.226562 33.621094 74.664062 C 33.328125 75.097656 33 75.503906 32.628906 75.875 C 32.257812 76.246094 31.855469 76.578125 31.421875 76.867188 C 30.988281 77.160156 30.527344 77.40625 30.042969 77.605469 C 29.5625 77.808594 29.0625 77.960938 28.550781 78.0625 C 28.039062 78.164062 27.519531 78.214844 26.996094 78.214844 C 26.472656 78.214844 25.957031 78.164062 25.441406 78.0625 C 24.929688 77.960938 24.429688 77.808594 23.949219 77.605469 C 23.464844 77.40625 23.003906 77.160156 22.570312 76.867188 C 22.136719 76.578125 21.734375 76.246094 21.363281 75.875 C 20.992188 75.503906 20.664062 75.097656 20.371094 74.664062 C 20.082031 74.226562 19.835938 73.765625 19.636719 73.28125 C 19.4375 72.796875 19.285156 72.296875 19.183594 71.78125 C 19.082031 71.265625 19.03125 70.746094 19.03125 70.222656 C 19.03125 69.695312 19.082031 69.175781 19.183594 68.660156 C 19.285156 68.148438 19.4375 67.648438 19.636719 67.160156 C 19.835938 66.675781 20.082031 66.214844 20.371094 65.78125 C 20.664062 65.34375 20.992188 64.941406 21.363281 64.570312 C 21.734375 64.199219 22.136719 63.867188 22.570312 63.574219 C 23.003906 63.28125 23.464844 63.035156 23.949219 62.835938 C 24.429688 62.632812 24.929688 62.484375 25.441406 62.378906 C 25.957031 62.277344 26.472656 62.226562 26.996094 62.226562 Z M 72.136719 70.222656 C 72.136719 69.695312 72.1875 69.175781 72.289062 68.660156 C 72.390625 68.148438 72.542969 67.648438 72.742188 67.160156 C 72.945312 66.675781 73.1875 66.214844 73.480469 65.78125 C 73.769531 65.34375 74.101562 64.941406 74.46875 64.570312 C 74.839844 64.199219 75.242188 63.867188 75.675781 63.574219 C 76.113281 63.28125 76.570312 63.035156 77.054688 62.835938 C 77.539062 62.632812 78.035156 62.484375 78.550781 62.378906 C 79.0625 62.277344 79.582031 62.226562 80.101562 62.226562 C 80.625 62.226562 81.144531 62.277344 81.65625 62.378906 C 82.171875 62.484375 82.667969 62.632812 83.152344 62.835938 C 83.636719 63.035156 84.09375 63.28125 84.527344 63.574219 C 84.964844 63.867188 85.367188 64.199219 85.734375 64.570312 C 86.105469 64.941406 86.4375 65.34375 86.726562 65.78125 C 87.015625 66.214844 87.261719 66.675781 87.464844 67.160156 C 87.664062 67.648438 87.8125 68.148438 87.917969 68.660156 C 88.019531 69.175781 88.070312 69.695312 88.070312 70.222656 C 88.070312 70.746094 88.019531 71.265625 87.917969 71.78125 C 87.8125 72.296875 87.664062 72.796875 87.464844 73.28125 C 87.261719 73.765625 87.015625 74.226562 86.726562 74.664062 C 86.4375 75.097656 86.105469 75.503906 85.734375 75.875 C 85.367188 76.246094 84.964844 76.578125 84.527344 76.867188 C 84.09375 77.160156 83.636719 77.40625 83.152344 77.605469 C 82.667969 77.808594 82.171875 77.960938 81.65625 78.0625 C 81.144531 78.164062 80.625 78.214844 80.101562 78.214844 C 79.582031 78.214844 79.0625 78.164062 78.550781 78.0625 C 78.035156 77.960938 77.539062 77.808594 77.054688 77.605469 C 76.570312 77.40625 76.113281 77.160156 75.675781 76.867188 C 75.242188 76.578125 74.839844 76.246094 74.46875 75.875 C 74.101562 75.503906 73.769531 75.097656 73.480469 74.664062 C 73.1875 74.226562 72.945312 73.765625 72.742188 73.28125 C 72.542969 72.796875 72.390625 72.296875 72.289062 71.78125 C 72.1875 71.265625 72.136719 70.746094 72.136719 70.222656 Z M 72.136719 70.222656 " fill-opacity="1" fill-rule="nonzero"/></g></g></g></g></svg>