<svg xmlns="http://www.w3.org/2000/svg" xmlns:xlink="http://www.w3.org/1999/xlink" width="1080" zoomAndPan="magnify" viewBox="0 0 810 187.499995" height="250" preserveAspectRatio="xMidYMid meet" version="1.0"><defs><filter x="0%" y="0%" width="100%" height="100%" id="6fb72aea88"><feColorMatrix values="0 0 0 0 1 0 0 0 0 1 0 0 0 0 1 0 0 0 1 0" color-interpolation-filters="sRGB"/></filter><mask id="3d3088d0e5"><g filter="url(#6fb72aea88)"><rect x="-81" width="972" fill="#000000" y="-18.749999" height="224.999994" fill-opacity="0.6"/></g></mask><clipPath id="1d6acaf4b6"><path d="M 0.4375 0.777344 L 157.882812 0.777344 L 157.882812 158.222656 L 0.4375 158.222656 Z M 0.4375 0.777344 " clip-rule="nonzero"/></clipPath><clipPath id="f30a57f175"><path d="M 79.160156 0.777344 C 35.683594 0.777344 0.4375 36.023438 0.4375 79.5 C 0.4375 122.976562 35.683594 158.222656 79.160156 158.222656 C 122.636719 158.222656 157.882812 122.976562 157.882812 79.5 C 157.882812 36.023438 122.636719 0.777344 79.160156 0.777344 Z M 79.160156 0.777344 " clip-rule="nonzero"/></clipPath><clipPath id="700e80386e"><rect x="0" width="158" y="0" height="159"/></clipPath><mask id="24aa5e3be1"><g filter="url(#6fb72aea88)"><rect x="-81" width="972" fill="#000000" y="-18.749999" height="224.999994" fill-opacity="0.6"/></g></mask><clipPath id="b90fd9339f"><path d="M 0.882812 0.777344 L 158.328125 0.777344 L 158.328125 158.222656 L 0.882812 158.222656 Z M 0.882812 0.777344 " clip-rule="nonzero"/></clipPath><clipPath id="2f33e1d263"><path d="M 79.605469 0.777344 C 36.128906 0.777344 0.882812 36.023438 0.882812 79.5 C 0.882812 122.976562 36.128906 158.222656 79.605469 158.222656 C 123.082031 158.222656 158.328125 122.976562 158.328125 79.5 C 158.328125 36.023438 123.082031 0.777344 79.605469 0.777344 Z M 79.605469 0.777344 " clip-rule="nonzero"/></clipPath><clipPath id="603b98e095"><rect x="0" width="159" y="0" height="159"/></clipPath><mask id="2c8542cf9a"><g filter="url(#6fb72aea88)"><rect x="-81" width="972" fill="#000000" y="-18.749999" height="224.999994" fill-opacity="0.6"/></g></mask><clipPath id="a13d4fed0a"><path d="M 0.730469 0.777344 L 158.175781 0.777344 L 158.175781 158.222656 L 0.730469 158.222656 Z M 0.730469 0.777344 " clip-rule="nonzero"/></clipPath><clipPath id="449ffe4df6"><path d="M 79.453125 0.777344 C 35.972656 0.777344 0.730469 36.023438 0.730469 79.5 C 0.730469 122.976562 35.972656 158.222656 79.453125 158.222656 C 122.929688 158.222656 158.175781 122.976562 158.175781 79.5 C 158.175781 36.023438 122.929688 0.777344 79.453125 0.777344 Z M 79.453125 0.777344 " clip-rule="nonzero"/></clipPath><clipPath id="4cf765c30f"><rect x="0" width="159" y="0" height="159"/></clipPath><clipPath id="a82389dfeb"><path d="M 483.921875 14.777344 L 641.367188 14.777344 L 641.367188 172.222656 L 483.921875 172.222656 Z M 483.921875 14.777344 " clip-rule="nonzero"/></clipPath><clipPath id="83b2ea22c4"><path d="M 562.644531 14.777344 C 519.167969 14.777344 483.921875 50.023438 483.921875 93.5 C 483.921875 136.976562 519.167969 172.222656 562.644531 172.222656 C 606.125 172.222656 641.367188 136.976562 641.367188 93.5 C 641.367188 50.023438 606.125 14.777344 562.644531 14.777344 Z M 562.644531 14.777344 " clip-rule="nonzero"/></clipPath><mask id="f4e31cadaf"><g filter="url(#6fb72aea88)"><rect x="-81" width="972" fill="#000000" y="-18.749999" height="224.999994" fill-opacity="0.6"/></g></mask><clipPath id="6a92875e86"><path d="M 0.117188 0.777344 L 157.5625 0.777344 L 157.5625 158.222656 L 0.117188 158.222656 Z M 0.117188 0.777344 " clip-rule="nonzero"/></clipPath><clipPath id="94b7b5aedd"><path d="M 78.839844 0.777344 C 35.363281 0.777344 0.117188 36.023438 0.117188 79.5 C 0.117188 122.976562 35.363281 158.222656 78.839844 158.222656 C 122.316406 158.222656 157.5625 122.976562 157.5625 79.5 C 157.5625 36.023438 122.316406 0.777344 78.839844 0.777344 Z M 78.839844 0.777344 " clip-rule="nonzero"/></clipPath><clipPath id="cc39b76a94"><rect x="0" width="158" y="0" height="159"/></clipPath><mask id="6283e16dcd"><g filter="url(#6fb72aea88)"><rect x="-81" width="972" fill="#000000" y="-18.749999" height="224.999994" fill-opacity="0.6"/></g></mask><clipPath id="73a333311f"><path d="M 0.296875 0.207031 L 106.511719 0.207031 L 106.511719 94.457031 L 0.296875 94.457031 Z M 0.296875 0.207031 " clip-rule="nonzero"/></clipPath><clipPath id="373b8f946e"><rect x="0" width="108" y="0" height="96"/></clipPath><mask id="046920a4ef"><g filter="url(#6fb72aea88)"><rect x="-81" width="972" fill="#000000" y="-18.749999" height="224.999994" fill-opacity="0.6"/></g></mask><clipPath id="73bf0bb5c4"><path d="M 0.304688 0.296875 L 80.34375 0.296875 L 80.34375 106.511719 L 0.304688 106.511719 Z M 0.304688 0.296875 " clip-rule="nonzero"/></clipPath><clipPath id="f64ff52590"><rect x="0" width="81" y="0" height="108"/></clipPath><mask id="09ab945d27"><g filter="url(#6fb72aea88)"><rect x="-81" width="972" fill="#000000" y="-18.749999" height="224.999994" fill-opacity="0.6"/></g></mask><clipPath id="5405dc79e2"><path d="M 0.824219 6 L 93.578125 6 L 93.578125 100 L 0.824219 100 Z M 0.824219 6 " clip-rule="nonzero"/></clipPath><clipPath id="b48ffb2439"><rect x="0" width="95" y="0" height="108"/></clipPath><mask id="9969c282e3"><g filter="url(#6fb72aea88)"><rect x="-81" width="972" fill="#000000" y="-18.749999" height="224.999994" fill-opacity="0.6"/></g></mask><clipPath id="df293ffabf"><path d="M 2 0.9375 L 107.308594 0.9375 L 107.308594 86.210938 L 2 86.210938 Z M 2 0.9375 " clip-rule="nonzero"/></clipPath><clipPath id="59eb191ef8"><rect x="0" width="109" y="0" height="87"/></clipPath><clipPath id="d9b311de46"><path d="M 509.441406 50.9375 L 615.660156 50.9375 L 615.660156 136.210938 L 509.441406 136.210938 Z M 509.441406 50.9375 " clip-rule="nonzero"/></clipPath></defs><g mask="url(#3d3088d0e5)"><g transform="matrix(1, 0, 0, 1, 10, 14)"><g clip-path="url(#700e80386e)"><g clip-path="url(#1d6acaf4b6)"><g clip-path="url(#f30a57f175)"><path fill="#005bad" d="M 0.4375 0.777344 L 157.882812 0.777344 L 157.882812 158.222656 L 0.4375 158.222656 Z M 0.4375 0.777344 " fill-opacity="1" fill-rule="nonzero"/></g></g></g></g></g><g mask="url(#24aa5e3be1)"><g transform="matrix(1, 0, 0, 1, 167, 14)"><g clip-path="url(#603b98e095)"><g clip-path="url(#b90fd9339f)"><g clip-path="url(#2f33e1d263)"><path fill="#005bad" d="M 0.882812 0.777344 L 158.328125 0.777344 L 158.328125 158.222656 L 0.882812 158.222656 Z M 0.882812 0.777344 " fill-opacity="1" fill-rule="nonzero"/></g></g></g></g></g><g mask="url(#2c8542cf9a)"><g transform="matrix(1, 0, 0, 1, 325, 14)"><g clip-path="url(#4cf765c30f)"><g clip-path="url(#a13d4fed0a)"><g clip-path="url(#449ffe4df6)"><path fill="#005bad" d="M 0.730469 0.777344 L 158.175781 0.777344 L 158.175781 158.222656 L 0.730469 158.222656 Z M 0.730469 0.777344 " fill-opacity="1" fill-rule="nonzero"/></g></g></g></g></g><g clip-path="url(#a82389dfeb)"><g clip-path="url(#83b2ea22c4)"><path fill="#005bad" d="M 483.921875 14.777344 L 641.367188 14.777344 L 641.367188 172.222656 L 483.921875 172.222656 Z M 483.921875 14.777344 " fill-opacity="1" fill-rule="nonzero"/></g></g><g mask="url(#f4e31cadaf)"><g transform="matrix(1, 0, 0, 1, 642, 14)"><g clip-path="url(#cc39b76a94)"><g clip-path="url(#6a92875e86)"><g clip-path="url(#94b7b5aedd)"><path fill="#005bad" d="M 0.117188 0.777344 L 157.5625 0.777344 L 157.5625 158.222656 L 0.117188 158.222656 Z M 0.117188 0.777344 " fill-opacity="1" fill-rule="nonzero"/></g></g></g></g></g><g mask="url(#6283e16dcd)"><g transform="matrix(1, 0, 0, 1, 668, 46)"><g clip-path="url(#373b8f946e)"><g clip-path="url(#73a333311f)"><path fill="#ffffff" d="M 106.472656 47.242188 C 106.472656 50.554688 103.707031 53.148438 100.574219 53.148438 L 94.671875 53.148438 L 94.800781 82.640625 C 94.800781 83.136719 94.765625 83.632812 94.710938 84.128906 L 94.710938 87.113281 C 94.710938 91.179688 91.410156 94.476562 87.332031 94.476562 L 84.382812 94.476562 C 84.179688 94.476562 83.976562 94.476562 83.773438 94.457031 C 83.515625 94.476562 83.257812 94.476562 83 94.476562 L 77.007812 94.457031 L 72.582031 94.457031 C 68.507812 94.457031 65.207031 91.160156 65.207031 87.09375 L 65.207031 70.894531 C 65.207031 67.636719 62.570312 65.003906 59.304688 65.003906 L 47.503906 65.003906 C 44.242188 65.003906 41.605469 67.636719 41.605469 70.894531 L 41.605469 87.09375 C 41.605469 91.160156 38.304688 94.457031 34.226562 94.457031 L 23.921875 94.457031 C 23.644531 94.457031 23.367188 94.4375 23.089844 94.417969 C 22.871094 94.4375 22.648438 94.457031 22.425781 94.457031 L 19.476562 94.457031 C 15.402344 94.457031 12.101562 91.160156 12.101562 87.09375 L 12.101562 66.476562 C 12.101562 66.3125 12.101562 66.125 12.121094 65.960938 L 12.121094 53.132812 L 6.21875 53.132812 C 2.898438 53.132812 0.316406 50.554688 0.316406 47.222656 C 0.316406 45.566406 0.871094 44.09375 2.164062 42.804688 L 49.421875 1.679688 C 50.714844 0.390625 52.1875 0.207031 53.480469 0.207031 C 54.769531 0.207031 56.246094 0.578125 57.351562 1.496094 L 104.445312 42.824219 C 105.921875 44.109375 106.660156 45.582031 106.472656 47.242188 Z M 106.472656 47.242188 " fill-opacity="1" fill-rule="nonzero"/></g></g></g></g><g mask="url(#046920a4ef)"><g transform="matrix(1, 0, 0, 1, 49, 40)"><g clip-path="url(#f64ff52590)"><g clip-path="url(#73bf0bb5c4)"><path fill="#ffffff" d="M 40.324219 0.359375 C 31.613281 0.359375 24.191406 5.890625 21.460938 13.621094 L 13.644531 13.621094 C 6.289062 13.621094 0.304688 19.566406 0.304688 26.882812 L 0.304688 93.191406 C 0.304688 100.503906 6.289062 106.449219 13.644531 106.449219 L 67.003906 106.449219 C 74.359375 106.449219 80.34375 100.503906 80.34375 93.191406 L 80.34375 26.882812 C 80.34375 19.566406 74.359375 13.621094 67.003906 13.621094 L 59.1875 13.621094 C 56.457031 5.890625 49.035156 0.359375 40.324219 0.359375 Z M 40.324219 13.621094 C 40.761719 13.621094 41.195312 13.664062 41.625 13.746094 C 42.054688 13.832031 42.472656 13.957031 42.875 14.125 C 43.28125 14.292969 43.664062 14.496094 44.027344 14.738281 C 44.394531 14.980469 44.730469 15.253906 45.039062 15.5625 C 45.347656 15.871094 45.625 16.207031 45.871094 16.566406 C 46.113281 16.929688 46.316406 17.3125 46.484375 17.714844 C 46.652344 18.117188 46.78125 18.53125 46.867188 18.957031 C 46.949219 19.382812 46.992188 19.816406 46.992188 20.25 C 46.992188 20.6875 46.949219 21.117188 46.867188 21.542969 C 46.78125 21.972656 46.652344 22.386719 46.484375 22.789062 C 46.316406 23.191406 46.113281 23.574219 45.871094 23.933594 C 45.625 24.296875 45.347656 24.632812 45.039062 24.941406 C 44.730469 25.246094 44.394531 25.523438 44.027344 25.765625 C 43.664062 26.007812 43.28125 26.210938 42.875 26.378906 C 42.472656 26.542969 42.054688 26.667969 41.625 26.753906 C 41.195312 26.839844 40.761719 26.882812 40.324219 26.882812 C 39.886719 26.882812 39.453125 26.839844 39.023438 26.753906 C 38.59375 26.667969 38.175781 26.542969 37.769531 26.378906 C 37.367188 26.210938 36.980469 26.007812 36.617188 25.765625 C 36.253906 25.523438 35.917969 25.246094 35.609375 24.941406 C 35.296875 24.632812 35.019531 24.296875 34.777344 23.933594 C 34.535156 23.574219 34.328125 23.191406 34.160156 22.789062 C 33.992188 22.386719 33.867188 21.972656 33.78125 21.542969 C 33.695312 21.117188 33.652344 20.6875 33.652344 20.25 C 33.652344 19.816406 33.695312 19.382812 33.78125 18.957031 C 33.867188 18.53125 33.992188 18.117188 34.160156 17.714844 C 34.328125 17.3125 34.535156 16.929688 34.777344 16.566406 C 35.019531 16.207031 35.296875 15.871094 35.609375 15.5625 C 35.917969 15.253906 36.253906 14.980469 36.617188 14.738281 C 36.980469 14.496094 37.367188 14.292969 37.769531 14.125 C 38.175781 13.957031 38.59375 13.832031 39.023438 13.746094 C 39.453125 13.664062 39.886719 13.621094 40.324219 13.621094 Z M 63.875 56.925781 L 37.199219 83.449219 C 35.238281 85.398438 32.070312 85.398438 30.132812 83.449219 L 16.769531 70.1875 C 14.8125 68.242188 14.8125 65.089844 16.769531 63.164062 C 18.730469 61.238281 21.898438 61.214844 23.835938 63.164062 L 33.632812 72.902344 L 56.789062 49.882812 C 58.75 47.933594 61.917969 47.933594 63.855469 49.882812 C 65.792969 51.828125 65.816406 54.980469 63.855469 56.90625 Z M 63.875 56.925781 " fill-opacity="1" fill-rule="nonzero"/></g></g></g></g><g mask="url(#09ab945d27)"><g transform="matrix(1, 0, 0, 1, 200, 40)"><g clip-path="url(#b48ffb2439)"><g clip-path="url(#5405dc79e2)"><path fill="#ffffff" d="M 11.320312 12.453125 L 0.824219 33.5 L 43.886719 33.5 L 43.886719 6.957031 L 20.222656 6.957031 C 16.457031 6.957031 13.019531 9.09375 11.320312 12.453125 Z M 50.515625 33.5 L 93.578125 33.5 L 83.082031 12.453125 C 81.382812 9.09375 77.945312 6.957031 74.179688 6.957031 L 50.515625 6.957031 Z M 93.578125 40.132812 L 0.824219 40.132812 L 0.824219 86.582031 C 0.824219 93.898438 6.765625 99.851562 14.074219 99.851562 L 80.328125 99.851562 C 87.636719 99.851562 93.578125 93.898438 93.578125 86.582031 Z M 93.578125 40.132812 " fill-opacity="1" fill-rule="nonzero"/></g></g></g></g><g mask="url(#9969c282e3)"><g transform="matrix(1, 0, 0, 1, 348, 50)"><g clip-path="url(#59eb191ef8)"><g clip-path="url(#df293ffabf)"><path fill="#ffffff" d="M 107.304688 0.9375 L 107.304688 67.554688 C 107.304688 77.867188 98.992188 86.210938 88.71875 86.210938 C 78.59375 86.210938 70.378906 78.097656 70.128906 68.007812 L 9.125 84.695312 C 6.285156 85.460938 3.382812 83.796875 2.601562 80.945312 C 1.820312 78.097656 3.496094 75.183594 6.335938 74.402344 L 59.507812 59.863281 L 59.507812 11.597656 C 59.507812 5.71875 64.273438 0.9375 70.128906 0.9375 Z M 96.683594 67.554688 C 96.683594 67.03125 96.632812 66.511719 96.53125 65.996094 C 96.429688 65.480469 96.277344 64.980469 96.078125 64.496094 C 95.878906 64.011719 95.632812 63.550781 95.339844 63.113281 C 95.050781 62.679688 94.71875 62.273438 94.351562 61.902344 C 93.980469 61.53125 93.578125 61.199219 93.144531 60.910156 C 92.707031 60.617188 92.25 60.371094 91.765625 60.171875 C 91.28125 59.96875 90.785156 59.816406 90.273438 59.714844 C 89.757812 59.613281 89.242188 59.5625 88.71875 59.5625 C 88.195312 59.5625 87.675781 59.613281 87.164062 59.714844 C 86.652344 59.816406 86.152344 59.96875 85.667969 60.171875 C 85.1875 60.371094 84.726562 60.617188 84.292969 60.910156 C 83.855469 61.199219 83.453125 61.53125 83.085938 61.902344 C 82.714844 62.273438 82.386719 62.679688 82.09375 63.113281 C 81.804688 63.550781 81.558594 64.011719 81.359375 64.496094 C 81.15625 64.980469 81.007812 65.480469 80.90625 65.996094 C 80.804688 66.511719 80.75 67.03125 80.75 67.554688 C 80.75 68.082031 80.804688 68.601562 80.90625 69.117188 C 81.007812 69.632812 81.15625 70.132812 81.359375 70.617188 C 81.558594 71.101562 81.804688 71.5625 82.09375 71.996094 C 82.386719 72.433594 82.714844 72.839844 83.085938 73.210938 C 83.453125 73.582031 83.855469 73.910156 84.292969 74.203125 C 84.726562 74.496094 85.1875 74.742188 85.667969 74.941406 C 86.152344 75.144531 86.652344 75.292969 87.164062 75.398438 C 87.675781 75.5 88.195312 75.550781 88.71875 75.550781 C 89.242188 75.550781 89.757812 75.5 90.273438 75.398438 C 90.785156 75.292969 91.28125 75.144531 91.765625 74.941406 C 92.25 74.742188 92.707031 74.496094 93.144531 74.203125 C 93.578125 73.910156 93.980469 73.582031 94.351562 73.210938 C 94.71875 72.839844 95.050781 72.433594 95.339844 71.996094 C 95.632812 71.5625 95.878906 71.101562 96.078125 70.617188 C 96.277344 70.132812 96.429688 69.632812 96.53125 69.117188 C 96.632812 68.601562 96.683594 68.082031 96.683594 67.554688 Z M 4.925781 35.53125 C 4.160156 32.679688 5.855469 29.765625 8.675781 29 L 16.375 26.933594 L 19.8125 39.808594 C 20.195312 41.226562 21.652344 42.074219 23.066406 41.691406 L 28.191406 40.308594 C 29.601562 39.925781 30.449219 38.460938 30.066406 37.046875 L 26.632812 24.171875 L 34.332031 22.105469 C 37.171875 21.339844 40.074219 23.039062 40.839844 25.871094 L 47.710938 51.601562 C 48.472656 54.449219 46.78125 57.363281 43.957031 58.128906 L 18.300781 65.042969 C 15.464844 65.808594 12.558594 64.109375 11.796875 61.277344 Z M 4.925781 35.53125 " fill-opacity="1" fill-rule="nonzero"/></g></g></g></g><g clip-path="url(#d9b311de46)"><path fill="#ffffff" d="M 528.03125 50.9375 C 523.632812 50.9375 520.0625 54.519531 520.0625 58.929688 L 520.0625 66.925781 L 512.097656 66.925781 C 510.636719 66.925781 509.441406 68.125 509.441406 69.589844 C 509.441406 71.054688 510.636719 72.253906 512.097656 72.253906 L 554.582031 72.253906 C 556.042969 72.253906 557.238281 73.453125 557.238281 74.921875 C 557.238281 76.386719 556.042969 77.585938 554.582031 77.585938 L 517.410156 77.585938 C 515.949219 77.585938 514.753906 78.785156 514.753906 80.25 C 514.753906 81.714844 515.949219 82.914062 517.410156 82.914062 L 549.273438 82.914062 C 550.734375 82.914062 551.929688 84.113281 551.929688 85.578125 C 551.929688 87.046875 550.734375 88.242188 549.273438 88.242188 L 512.097656 88.242188 C 510.636719 88.242188 509.441406 89.441406 509.441406 90.910156 C 509.441406 92.375 510.636719 93.574219 512.097656 93.574219 L 543.960938 93.574219 C 545.421875 93.574219 546.617188 94.773438 546.617188 96.238281 C 546.617188 97.703125 545.421875 98.902344 543.960938 98.902344 L 520.0625 98.902344 L 520.0625 120.222656 C 520.0625 129.046875 527.199219 136.210938 535.996094 136.210938 C 544.792969 136.210938 551.929688 129.046875 551.929688 120.222656 L 573.171875 120.222656 C 573.171875 129.046875 580.308594 136.210938 589.101562 136.210938 C 597.898438 136.210938 605.035156 129.046875 605.035156 120.222656 L 610.347656 120.222656 C 613.285156 120.222656 615.65625 117.839844 615.65625 114.890625 C 615.65625 111.945312 613.285156 109.5625 610.347656 109.5625 L 610.347656 90.460938 C 610.347656 87.628906 609.234375 84.914062 607.242188 82.914062 L 594.414062 70.039062 C 592.421875 68.042969 589.71875 66.925781 586.894531 66.925781 L 578.480469 66.925781 L 578.480469 58.929688 C 578.480469 54.519531 574.914062 50.9375 570.515625 50.9375 Z M 599.726562 90.460938 L 599.726562 93.574219 L 578.480469 93.574219 L 578.480469 77.585938 L 586.894531 77.585938 Z M 535.996094 112.226562 C 536.519531 112.226562 537.039062 112.277344 537.550781 112.378906 C 538.0625 112.484375 538.5625 112.632812 539.042969 112.835938 C 539.527344 113.035156 539.988281 113.28125 540.421875 113.574219 C 540.855469 113.867188 541.257812 114.199219 541.628906 114.570312 C 542 114.941406 542.328125 115.34375 542.621094 115.78125 C 542.910156 116.214844 543.15625 116.675781 543.355469 117.160156 C 543.554688 117.648438 543.707031 118.148438 543.808594 118.660156 C 543.910156 119.175781 543.960938 119.695312 543.960938 120.222656 C 543.960938 120.746094 543.910156 121.265625 543.808594 121.78125 C 543.707031 122.296875 543.554688 122.796875 543.355469 123.28125 C 543.15625 123.765625 542.910156 124.226562 542.621094 124.664062 C 542.328125 125.097656 542 125.503906 541.628906 125.875 C 541.257812 126.246094 540.855469 126.578125 540.421875 126.867188 C 539.988281 127.160156 539.527344 127.40625 539.042969 127.605469 C 538.5625 127.808594 538.0625 127.960938 537.550781 128.0625 C 537.039062 128.164062 536.519531 128.214844 535.996094 128.214844 C 535.472656 128.214844 534.957031 128.164062 534.441406 128.0625 C 533.929688 127.960938 533.429688 127.808594 532.949219 127.605469 C 532.464844 127.40625 532.003906 127.160156 531.570312 126.867188 C 531.136719 126.578125 530.734375 126.246094 530.363281 125.875 C 529.992188 125.503906 529.664062 125.097656 529.371094 124.664062 C 529.082031 124.226562 528.835938 123.765625 528.636719 123.28125 C 528.4375 122.796875 528.285156 122.296875 528.183594 121.78125 C 528.082031 121.265625 528.03125 120.746094 528.03125 120.222656 C 528.03125 119.695312 528.082031 119.175781 528.183594 118.660156 C 528.285156 118.148438 528.4375 117.648438 528.636719 117.160156 C 528.835938 116.675781 529.082031 116.214844 529.371094 115.78125 C 529.664062 115.34375 529.992188 114.941406 530.363281 114.570312 C 530.734375 114.199219 531.136719 113.867188 531.570312 113.574219 C 532.003906 113.28125 532.464844 113.035156 532.949219 112.835938 C 533.429688 112.632812 533.929688 112.484375 534.441406 112.378906 C 534.957031 112.277344 535.472656 112.226562 535.996094 112.226562 Z M 581.136719 120.222656 C 581.136719 119.695312 581.1875 119.175781 581.289062 118.660156 C 581.390625 118.148438 581.542969 117.648438 581.742188 117.160156 C 581.945312 116.675781 582.1875 116.214844 582.480469 115.78125 C 582.769531 115.34375 583.101562 114.941406 583.46875 114.570312 C 583.839844 114.199219 584.242188 113.867188 584.675781 113.574219 C 585.113281 113.28125 585.570312 113.035156 586.054688 112.835938 C 586.539062 112.632812 587.035156 112.484375 587.550781 112.378906 C 588.0625 112.277344 588.582031 112.226562 589.101562 112.226562 C 589.625 112.226562 590.144531 112.277344 590.65625 112.378906 C 591.171875 112.484375 591.667969 112.632812 592.152344 112.835938 C 592.636719 113.035156 593.09375 113.28125 593.527344 113.574219 C 593.964844 113.867188 594.367188 114.199219 594.734375 114.570312 C 595.105469 114.941406 595.4375 115.34375 595.726562 115.78125 C 596.015625 116.214844 596.261719 116.675781 596.464844 117.160156 C 596.664062 117.648438 596.8125 118.148438 596.917969 118.660156 C 597.019531 119.175781 597.070312 119.695312 597.070312 120.222656 C 597.070312 120.746094 597.019531 121.265625 596.917969 121.78125 C 596.8125 122.296875 596.664062 122.796875 596.464844 123.28125 C 596.261719 123.765625 596.015625 124.226562 595.726562 124.664062 C 595.4375 125.097656 595.105469 125.503906 594.734375 125.875 C 594.367188 126.246094 593.964844 126.578125 593.527344 126.867188 C 593.09375 127.160156 592.636719 127.40625 592.152344 127.605469 C 591.667969 127.808594 591.171875 127.960938 590.65625 128.0625 C 590.144531 128.164062 589.625 128.214844 589.101562 128.214844 C 588.582031 128.214844 588.0625 128.164062 587.550781 128.0625 C 587.035156 127.960938 586.539062 127.808594 586.054688 127.605469 C 585.570312 127.40625 585.113281 127.160156 584.675781 126.867188 C 584.242188 126.578125 583.839844 126.246094 583.46875 125.875 C 583.101562 125.503906 582.769531 125.097656 582.480469 124.664062 C 582.1875 124.226562 581.945312 123.765625 581.742188 123.28125 C 581.542969 122.796875 581.390625 122.296875 581.289062 121.78125 C 581.1875 121.265625 581.136719 120.746094 581.136719 120.222656 Z M 581.136719 120.222656 " fill-opacity="1" fill-rule="nonzero"/></g></svg>